<svg width="165" height="20" viewBox="0 0 165 20" fill="none" xmlns="http://www.w3.org/2000/svg">
<path fill-rule="evenodd" clip-rule="evenodd" d="M162.885 0.98291H148.632C147.592 0.98291 146.797 1.83933 146.797 2.81809V17.0713C146.797 18.1112 147.653 18.9065 148.632 18.9065H162.885C163.924 18.9065 164.72 18.05 164.72 17.0713V2.81809C164.781 1.83933 163.924 0.98291 162.885 0.98291ZM161.906 5.99906L154.749 15.4196C154.688 15.542 154.565 15.6643 154.443 15.7255C153.893 16.1537 153.097 16.0313 152.669 15.4808L149.611 11.5046C149.182 10.954 149.305 10.1588 149.855 9.73058C150.406 9.30237 151.201 9.42472 151.629 9.97527L153.709 12.6669L159.948 4.53092C160.377 3.98036 161.172 3.85802 161.722 4.28623C162.273 4.65326 162.334 5.4485 161.906 5.99906Z" fill="#708585"/>
<path d="M12.1013 18.9676L11.2449 16.276H5.73965L4.88327 18.9676H0.234375L6.77953 0.98291H10.205L16.7502 18.9676H12.1013ZM8.55345 7.83423L6.96304 12.6057H10.0827L8.55345 7.83423Z" fill="#708585"/>
<path d="M25.1297 19.1511C21.3983 19.1511 18.3398 16.6431 18.3398 12.6669V0.98291H22.7441V12.5445C22.7441 14.1962 23.6616 15.1749 25.1297 15.1749C26.5978 15.1749 27.5765 14.1962 27.5765 12.5445V0.98291H31.9807V12.6669C31.9807 16.5819 28.861 19.1511 25.1297 19.1511Z" fill="#708585"/>
<path d="M43.1756 4.95899V19.0287H38.7714V4.95899H34.3672V1.04395H47.641V4.95899H43.1756Z" fill="#708585"/>
<path d="M61.0371 17.1326C59.7525 18.4172 58.2233 19.1513 56.0212 19.1513C53.819 19.1513 52.2898 18.4172 51.0052 17.1326C49.109 15.2362 49.1701 12.7282 49.1701 10.0366C49.1701 7.34499 49.109 4.83692 51.0052 2.94057C52.2898 1.65594 53.819 0.921875 56.0212 0.921875C58.2233 0.921875 59.7525 1.65594 61.0371 2.94057C62.9333 4.83692 62.8722 7.34499 62.8722 10.0366C62.8722 12.667 62.9333 15.2362 61.0371 17.1326ZM57.7951 5.57099C57.4892 5.14278 56.8164 4.77574 56.0212 4.77574C55.2259 4.77574 54.5531 5.14278 54.2472 5.57099C53.819 6.12154 53.5744 6.73326 53.5744 9.97541C53.5744 13.2787 53.819 13.8293 54.2472 14.3798C54.5531 14.808 55.2259 15.1751 56.0212 15.1751C56.8164 15.1751 57.4892 14.808 57.7951 14.3798C58.2233 13.8293 58.4679 13.2787 58.4679 9.97541C58.4679 6.67209 58.2233 6.12154 57.7951 5.57099Z" fill="#708585"/>
<path d="M73.3305 4.95899V19.0287H68.9263V4.95899H64.4609V1.04395H77.7348V4.95899H73.3305Z" fill="white"/>
<path d="M89.4808 18.9676L86.3 12.2998H84.832V18.9676H80.4277V0.98291H87.5234C91.4994 0.98291 93.6404 3.79685 93.6404 6.7943C93.6404 9.2412 92.1111 10.7705 90.7042 11.5046L94.6191 19.0288H89.4808V18.9676ZM87.3399 4.95913H84.832V8.5683H87.3399C88.5633 8.5683 89.2362 7.71189 89.2362 6.73313C89.2362 5.81554 88.5633 4.95913 87.3399 4.95913Z" fill="white"/>
<path d="M103.489 19.1511C99.7577 19.1511 96.6992 16.6431 96.6992 12.6669V0.98291H101.103V12.5445C101.103 14.1962 102.021 15.1749 103.489 15.1749C104.957 15.1749 105.936 14.1962 105.936 12.5445V0.98291H110.34V12.6669C110.34 16.5819 107.22 19.1511 103.489 19.1511Z" fill="white"/>
<path d="M118.904 19.1513C116.151 19.1513 113.888 18.6619 112.053 16.7656L114.867 13.9516C115.784 14.8692 117.436 15.2362 118.904 15.2362C120.616 15.2362 121.473 14.6245 121.473 13.6458C121.473 13.2176 121.351 12.8505 121.106 12.6058C120.861 12.3611 120.494 12.1776 119.944 12.1164L117.742 11.8106C116.151 11.5659 114.928 11.0765 114.133 10.2201C113.276 9.36368 112.909 8.14023 112.909 6.61092C112.909 3.3076 115.356 0.921875 119.454 0.921875C122.023 0.921875 123.981 1.5336 125.51 3.06291L122.757 5.81568C121.595 4.6534 120.127 4.77574 119.332 4.77574C117.803 4.77574 117.13 5.63216 117.13 6.4274C117.13 6.67209 117.191 6.97796 117.497 7.28382C117.742 7.52851 118.109 7.71202 118.72 7.83437L120.922 8.14023C122.513 8.38492 123.675 8.8743 124.47 9.60837C125.449 10.526 125.816 11.8718 125.816 13.5234C125.816 17.1326 122.696 19.1513 118.904 19.1513Z" fill="white"/>
<path d="M136.642 4.95899V19.0287H132.238V4.95899H127.834V1.04395H141.108V4.95899H136.642Z" fill="white"/>
</svg>
