<svg width="60" height="59" viewBox="0 0 60 59" fill="none" xmlns="http://www.w3.org/2000/svg">
<path d="M29.9983 3.9939C15.9113 3.9939 4.49219 15.413 4.49219 29.5C4.49219 43.5871 15.9113 55.0062 29.9983 55.0062C44.0854 55.0062 55.5045 43.5871 55.5045 29.5C55.5045 15.413 44.0854 3.9939 29.9983 3.9939ZM53.8396 29.5C53.8396 42.6693 43.1676 53.3414 29.9983 53.3414C16.8291 53.3414 6.15702 42.6693 6.15702 29.5C6.15702 16.3308 16.8291 5.65873 29.9983 5.65873C43.1676 5.65873 53.8396 16.3308 53.8396 29.5Z" fill="white"/>
<path d="M42.3583 18.6805C42.6998 19.0433 43.2121 19.6623 43.4895 20.0251L48.6548 16.7382C48.3987 16.3967 47.9931 15.8844 47.673 15.5216L44.4073 17.6773L44.1939 17.8694L44.3646 17.6346L45.816 14.7532L44.7915 13.7287L41.9101 15.18L41.6753 15.3508L41.8674 15.1374L44.0231 11.8717C43.6389 11.5516 43.2761 11.2527 42.8065 10.8899L39.5195 16.0552C39.9251 16.3753 40.48 16.8449 40.8215 17.165L43.9164 15.5642L44.1085 15.4148L43.9591 15.6069L42.3583 18.6805Z" fill="white"/>
<path d="M30.6409 12.1492L32.0496 8.99025L32.135 8.71277L32.1136 9.01159L32.263 13.2377C32.7539 13.2804 33.2662 13.3444 33.7785 13.4298L33.5437 7.176C32.8393 7.09063 32.135 7.04794 31.4306 7.00525L30.0432 10.463L30.0006 10.7191L29.9579 10.463L28.5705 7.00525C27.8661 7.02659 27.1618 7.09063 26.4574 7.176L26.2227 13.4298C26.7349 13.3444 27.2472 13.2804 27.7381 13.2377L27.8875 9.01159L27.8661 8.71277L27.9515 8.99025L29.3602 12.1492H30.6409Z" fill="white"/>
<path d="M19.2214 17.1222C20.0325 16.2685 20.502 15.2653 19.691 14.3262C19.2427 13.8139 18.4957 13.7072 17.8767 13.9633L17.8127 13.9847L17.834 13.9206C17.9194 13.6858 17.9834 12.8961 17.3218 12.3625C17.0016 12.1064 16.5961 11.9997 16.1905 12.0424C15.4221 12.1277 14.8459 12.64 13.2237 14.4329C12.7328 14.9665 12.0284 15.8202 11.6016 16.3752L16.0198 20.5586C17.4925 18.9365 18.0688 18.3388 19.2214 17.1222ZM13.4798 16.0977C14.3763 15.0092 15.3154 14.0273 15.7423 13.6432C15.8704 13.5151 16.0198 13.387 16.2119 13.3443C16.5107 13.259 16.8095 13.4724 16.8735 13.7712C16.9376 14.07 16.7455 14.3475 16.5534 14.5823C16.0625 15.1159 14.3336 16.9301 14.3336 16.9301L13.4798 16.0977ZM15.2087 17.7412C15.2087 17.7412 16.8949 15.9697 17.4285 15.3934C17.6419 15.1586 17.7913 15.0305 17.9407 14.9665C18.1328 14.8811 18.3463 14.8598 18.5384 14.9878C18.7305 15.1159 18.8159 15.3293 18.7732 15.5428C18.7091 15.7989 18.517 16.0337 18.3463 16.2258C18.1115 16.4819 16.1265 18.595 16.1265 18.595L15.2087 17.7412Z" fill="white"/>
<path d="M29.9983 14.3884V29.5H14.8867C14.8867 21.1331 21.6314 14.3884 29.9983 14.3884Z" fill="white"/>
<path d="M45.1116 29.5C45.1116 37.8669 38.3455 44.6116 30 44.6116V29.5H45.1116Z" fill="white"/>
</svg>
