<svg width="22" height="23" viewBox="0 0 22 23" fill="none" xmlns="http://www.w3.org/2000/svg">
<path d="M5.91602 0C6.33789 0 6.66602 0.328125 6.66602 0.75V3H15.666V0.75C15.666 0.328125 15.9941 0 16.416 0C16.8379 0 17.166 0.328125 17.166 0.75V3H18.666C20.3066 3 21.666 4.35938 21.666 6V19.5C21.666 21.1406 20.3066 22.5 18.666 22.5H3.66602C2.02539 22.5 0.666016 21.1406 0.666016 19.5V6C0.666016 4.35938 2.02539 3 3.66602 3H5.16602V0.75C5.16602 0.328125 5.49414 0 5.91602 0ZM18.666 4.5H3.66602C2.82227 4.5 2.16602 5.15625 2.16602 6V7.5H20.166V6C20.166 5.15625 19.5098 4.5 18.666 4.5ZM20.166 9H2.16602V19.5C2.16602 20.3438 2.82227 21 3.66602 21H18.666C19.5098 21 20.166 20.3438 20.166 19.5V9Z" fill="#708585"/>
</svg>
