<svg width="17" height="18" viewBox="0 0 17 18" fill="none" xmlns="http://www.w3.org/2000/svg">
<path d="M4.61719 0.967041C5.07422 0.967041 5.46094 1.35376 5.46094 1.81079V3.21704H11.0859V1.81079C11.0859 1.35376 11.4727 0.967041 11.9297 0.967041C12.3867 0.967041 12.7734 1.35376 12.7734 1.81079V3.21704H13.8984C15.1289 3.21704 16.1484 4.23657 16.1484 5.46704V15.592C16.1484 16.8225 15.1289 17.842 13.8984 17.842H2.64844C1.41797 17.842 0.398438 16.8225 0.398438 15.592V5.46704C0.398438 4.23657 1.41797 3.21704 2.64844 3.21704H3.77344V1.81079C3.77344 1.35376 4.16016 0.967041 4.61719 0.967041ZM4.61719 4.90454H2.64844C2.33203 4.90454 2.08594 5.15063 2.08594 5.46704V7.15454H14.4609V5.46704C14.4609 5.15063 14.2148 4.90454 13.8984 4.90454H4.61719ZM2.08594 8.84204V15.592C2.08594 15.9084 2.33203 16.1545 2.64844 16.1545H13.8984C14.2148 16.1545 14.4609 15.9084 14.4609 15.592V8.84204H2.08594Z" fill="white"/>
</svg>
