<svg width="22" height="23" viewBox="0 0 22 23" fill="none" xmlns="http://www.w3.org/2000/svg">
<path d="M5.48438 0C5.90625 0 6.23438 0.328125 6.23438 0.75V3H15.2344V0.75C15.2344 0.328125 15.5625 0 15.9844 0C16.4062 0 16.7344 0.328125 16.7344 0.75V3H18.2344C19.875 3 21.2344 4.35938 21.2344 6V19.5C21.2344 21.1406 19.875 22.5 18.2344 22.5H3.23438C1.59375 22.5 0.234375 21.1406 0.234375 19.5V6C0.234375 4.35938 1.59375 3 3.23438 3H4.73438V0.75C4.73438 0.328125 5.0625 0 5.48438 0ZM18.2344 4.5H3.23438C2.39062 4.5 1.73438 5.15625 1.73438 6V7.5H19.7344V6C19.7344 5.15625 19.0781 4.5 18.2344 4.5ZM19.7344 9H1.73438V19.5C1.73438 20.3438 2.39062 21 3.23438 21H18.2344C19.0781 21 19.7344 20.3438 19.7344 19.5V9Z" fill="#E54F29"/>
</svg>
