<svg width="30" height="34" viewBox="0 0 30 34" fill="none" xmlns="http://www.w3.org/2000/svg">
<path d="M16.5 1.5V7H13.5V0H16.5V1.5ZM6.4375 11H23.625L23.9375 12.0625L26.125 19H29.0625V34H26.0625V31H4.0625V34H1.0625V19H3.9375L6.125 12.0625L6.4375 11ZM26 22H4V28H26V22ZM21.4375 14H8.625L7.0625 19H23L21.4375 14ZM7 23.5C7.875 23.5 8.5 24.1875 8.5 25C8.5 25.8125 7.875 26.5 7 26.5C6.1875 26.5 5.5 25.8125 5.5 25C5.5 24.1875 6.1875 23.5 7 23.5ZM21.5 25C21.5 24.1875 22.1875 23.5 23 23.5C23.875 23.5 24.5 24.1875 24.5 25C24.5 25.8125 23.875 26.5 23 26.5C22.1875 26.5 21.5 25.8125 21.5 25ZM2.5 1.375L6.5625 5.4375L7.625 6.5L5.5625 8.625C5.125 8.25 3.8125 6.875 1.5 4.5625L0.4375 3.5L2.5 1.375ZM26.4375 2.4375L27.5 1.375L29.625 3.5C29.25 3.875 27.9375 5.25 25.5625 7.5625L24.5 8.625L22.375 6.5C22.8125 6.125 24.125 4.75 26.4375 2.4375Z" fill="#E54F29"/>
</svg>
