<svg width="19" height="16" viewBox="0 0 19 16" fill="none" xmlns="http://www.w3.org/2000/svg">
<path d="M5.11719 2.9397L4.20312 5.71704H15.7344L14.8203 2.9397C14.5742 2.23657 13.9414 1.77954 13.2031 1.77954H6.73438C5.99609 1.77954 5.36328 2.23657 5.11719 2.9397ZM2.375 5.89282L3.53516 2.41235C3.99219 1.0061 5.29297 0.092041 6.73438 0.092041H13.2031C14.6445 0.092041 15.9453 1.0061 16.4023 2.41235L17.5625 5.89282C18.4062 6.20923 18.9688 7.01782 18.9688 7.96704V14.9983C18.9688 15.4553 18.582 15.842 18.125 15.842C17.668 15.842 17.2812 15.4553 17.2812 14.9983V13.592H2.65625V14.9983C2.65625 15.4553 2.26953 15.842 1.8125 15.842C1.35547 15.842 0.96875 15.4553 0.96875 14.9983V7.96704C0.96875 7.01782 1.53125 6.20923 2.375 5.89282ZM3.21875 7.40454C2.90234 7.40454 2.65625 7.65063 2.65625 7.96704V11.9045H17.2812V7.96704C17.2812 7.65063 17.0352 7.40454 16.7188 7.40454H3.21875ZM4.90625 8.52954C5.53906 8.52954 6.03125 9.02173 6.03125 9.65454C6.03125 10.2874 5.53906 10.7795 4.90625 10.7795C4.27344 10.7795 3.78125 10.2874 3.78125 9.65454C3.78125 9.02173 4.27344 8.52954 4.90625 8.52954ZM13.9062 9.65454C13.9062 9.02173 14.3984 8.52954 15.0312 8.52954C15.6641 8.52954 16.1562 9.02173 16.1562 9.65454C16.1562 10.2874 15.6641 10.7795 15.0312 10.7795C14.3984 10.7795 13.9062 10.2874 13.9062 9.65454Z" fill="white"/>
</svg>
