<svg width="40" height="28" viewBox="0 0 40 28" fill="none" xmlns="http://www.w3.org/2000/svg">
<path d="M7 0H24.75L25.1875 0.625L32.375 10H40V23H35C34.75 25.8125 32.375 28 29.5 28C26.625 28 24.25 25.8125 24 23H15C14.75 25.8125 12.375 28 9.5 28C6.625 28 4.3125 25.8125 4.0625 23H0V10H3.1875L6.625 1L7 0ZM24.625 20C25.5 18.25 27.375 17 29.5 17C31.625 17 33.5 18.25 34.375 20H37V13H3V20H4.625C5.5 18.25 7.375 17 9.5 17C11.625 17 13.5 18.25 14.375 20H24.625ZM6.375 10H15V3H9.0625L6.375 10ZM18 10H28.5625L23.25 3H18V10ZM9.5 25C10.875 25 12 23.875 12 22.5C12 21.125 10.875 20 9.5 20C8.125 20 7 21.125 7 22.5C7 23.875 8.125 25 9.5 25ZM32 22.5C32 21.125 30.875 20 29.5 20C28.125 20 27 21.125 27 22.5C27 23.875 28.125 25 29.5 25C30.875 25 32 23.875 32 22.5Z" fill="#E54F29"/>
</svg>
