<svg width="31" height="30" viewBox="0 0 31 30" fill="none" xmlns="http://www.w3.org/2000/svg">
<path d="M0.919922 14.7609C0.919922 8.53197 5.96947 3.48242 12.1984 3.48242H18.728C24.957 3.48242 30.0065 8.53197 30.0065 14.7609C30.0065 20.9898 24.957 26.0394 18.728 26.0394H12.1984C5.96946 26.0394 0.919922 20.9898 0.919922 14.7609Z" fill="#E8502C"/>
<rect x="0.462891" width="30" height="30" rx="15" fill="white"/>
<path d="M14.6504 21.5586L10.0566 16.9648L9.5918 16.5L10.5215 15.5703L10.9863 16.0352L14.459 19.5078V7.75H15.7715V19.5078L19.2441 16.0352L19.709 15.5703L20.6387 16.5L20.1738 16.9648L15.5801 21.5586L15.1152 22.0234L14.6504 21.5586Z" fill="#132025"/>
</svg>
