<svg width="25" height="24" viewBox="0 0 25 24" fill="none" xmlns="http://www.w3.org/2000/svg">
<path d="M12.4688 1.5C6.65625 1.5 1.96875 6.1875 1.96875 12C1.96875 17.8125 6.65625 22.5 12.4688 22.5C18.2812 22.5 22.9688 17.8125 22.9688 12C22.9688 6.1875 18.2812 1.5 12.4688 1.5ZM12.4688 24C5.85938 24 0.46875 18.6094 0.46875 12C0.46875 5.39062 5.85938 0 12.4688 0C19.0781 0 24.4688 5.39062 24.4688 12C24.4688 18.6094 19.0781 24 12.4688 24ZM16.7344 12.5156L13.3594 15.8906C13.0781 16.2188 12.6094 16.2188 12.3281 15.8906C12.0469 15.6094 12.0469 15.1406 12.3281 14.8594L14.3906 12.75H8.71875C8.29688 12.75 7.96875 12.4219 7.96875 12C7.96875 11.5781 8.29688 11.25 8.71875 11.25H14.3906L12.3281 9.14062C12.0469 8.85938 12.0469 8.39062 12.3281 8.10938C12.6094 7.82812 13.0781 7.82812 13.3594 8.10938L16.7344 11.4844C17.0625 11.7656 17.0625 12.2344 16.7344 12.5156Z" fill="#E54F29"/>
</svg>
