<svg width="20" height="21" viewBox="0 0 20 21" fill="none" xmlns="http://www.w3.org/2000/svg">
<path d="M18.125 10.5392C18.125 6.047 14.4922 2.41418 10 2.41418C5.50781 2.41418 1.875 6.047 1.875 10.5392C1.875 15.0314 5.50781 18.6642 10 18.6642C14.4922 18.6642 18.125 15.0314 18.125 10.5392ZM0 10.5392C0 5.03137 4.49219 0.539185 10 0.539185C15.5078 0.539185 20 5.03137 20 10.5392C20 16.047 15.5078 20.5392 10 20.5392C4.49219 20.5392 0 16.047 0 10.5392ZM9.0625 5.22668V4.28918H10.9375V10.0314C13.5938 11.7892 14.9609 12.7267 15.0391 12.7657L14.0234 14.3282L13.2422 13.8204L9.49219 11.3204L9.0625 11.047V5.22668Z" fill="#132025"/>
</svg>
