<svg width="22" height="18" viewBox="0 0 22 18" fill="none" xmlns="http://www.w3.org/2000/svg">
<path d="M12.4219 2.8208L15.3125 7.15674L18.7891 5.28174C18.75 5.16455 18.75 5.04736 18.75 4.93018C18.75 4.0708 19.4531 3.36768 20.3125 3.36768C21.1719 3.36768 21.875 4.0708 21.875 4.93018C21.875 5.71143 21.2891 6.37549 20.5469 6.49268L18.75 16.3364L18.5938 17.1177H3.90625L3.75 16.3364L1.95312 6.49268C1.21094 6.37549 0.625 5.71143 0.625 4.93018C0.625 4.0708 1.32812 3.36768 2.1875 3.36768C3.04688 3.36768 3.75 4.0708 3.75 4.93018C3.75 5.04736 3.75 5.16455 3.71094 5.28174L7.1875 7.15674L10.0781 2.8208C9.84375 2.54736 9.6875 2.1958 9.6875 1.80518C9.6875 0.945801 10.3906 0.242676 11.25 0.242676C12.1094 0.242676 12.8125 0.945801 12.8125 1.80518C12.8125 2.1958 12.6562 2.54736 12.4219 2.8208ZM8.28125 8.87549L7.8125 9.57861C7.69531 9.53955 6.44531 8.87549 4.10156 7.62549L5.46875 15.2427H17.0312L18.4375 7.62549C16.0547 8.87549 14.8047 9.53955 14.6875 9.57861L14.2188 8.87549L11.25 4.42236L8.28125 8.87549Z" fill="#132025"/>
</svg>
