<svg width="16" height="13" viewBox="0 0 16 13" fill="none" xmlns="http://www.w3.org/2000/svg">
<path d="M8.44727 2.24121L10.4707 5.27637L12.9043 3.96387C12.877 3.88184 12.877 3.7998 12.877 3.71777C12.877 3.11621 13.3691 2.62402 13.9707 2.62402C14.5723 2.62402 15.0645 3.11621 15.0645 3.71777C15.0645 4.26465 14.6543 4.72949 14.1348 4.81152L12.877 11.7021L12.7676 12.249H2.48633L2.37695 11.7021L1.11914 4.81152C0.599609 4.72949 0.189453 4.26465 0.189453 3.71777C0.189453 3.11621 0.681641 2.62402 1.2832 2.62402C1.88477 2.62402 2.37695 3.11621 2.37695 3.71777C2.37695 3.7998 2.37695 3.88184 2.34961 3.96387L4.7832 5.27637L6.80664 2.24121C6.64258 2.0498 6.5332 1.80371 6.5332 1.53027C6.5332 0.928711 7.02539 0.436523 7.62695 0.436523C8.22852 0.436523 8.7207 0.928711 8.7207 1.53027C8.7207 1.80371 8.61133 2.0498 8.44727 2.24121ZM5.54883 6.47949L5.2207 6.97168C5.13867 6.94434 4.26367 6.47949 2.62305 5.60449L3.58008 10.9365H11.6738L12.6582 5.60449C10.9902 6.47949 10.1152 6.94434 10.0332 6.97168L9.70508 6.47949L7.62695 3.3623L5.54883 6.47949Z" fill="#132025"/>
</svg>
