<svg width="103" height="68" viewBox="0 0 103 68" fill="none" xmlns="http://www.w3.org/2000/svg">
<g clip-path="url(#clip0_16_13)">
<path d="M20.9824 0.5C30.7639 3.91192 40.4802 7.45507 50.2617 10.8014C50.6216 10.9326 50.9487 10.9326 51.3085 10.8014C61.0902 7.45507 70.8063 3.91192 80.5553 0.5C77.0875 6.04438 73.6197 11.5559 70.0538 17.0348C68.4182 16.3458 66.7498 15.7552 65.0813 15.0664C66.03 13.3931 67.0769 11.7528 68.0256 10.0468C64.8851 11.6216 61.679 13.0979 58.5384 14.7382C60.7303 15.5584 62.9222 16.3786 65.0813 17.2644C66.2917 17.7564 67.6004 18.7078 67.6658 20.1186C67.862 21.6934 66.7825 22.9728 66.03 24.2522C61.3192 31.6338 56.641 39.0482 51.8975 46.4298C51.9302 44.4942 51.7012 42.5257 51.9302 40.5901C53.7949 34.652 55.6269 28.7468 57.3281 22.7432C57.6552 21.8574 56.6737 21.3652 56.0194 21.07C54.2201 20.2826 52.5518 19.2328 50.6871 18.5438C48.8223 19.364 47.023 20.3482 45.191 21.234C44.6348 21.4964 43.817 22.0214 44.1442 22.7432C45.8125 28.714 47.6772 34.652 49.542 40.5901C49.7384 42.5257 49.542 44.4942 49.5747 46.4298C44.9294 39.1138 40.2839 31.7978 35.6058 24.482C34.7879 23.1368 33.6101 21.759 33.8065 20.0858C33.9046 18.675 35.2131 17.7236 36.4235 17.2316C38.5828 16.3458 40.7419 15.5584 42.9337 14.7054C39.8259 13.0651 36.6199 11.5888 33.4792 10.014C34.428 11.6872 35.4748 13.3275 36.4235 15.0334C34.7552 15.6896 33.0867 16.313 31.451 17.002C27.9505 11.5231 24.4829 6.01157 20.9824 0.5ZM41.6906 67.3934C41.7233 64.1783 41.6579 60.9304 41.7233 57.7153C47.023 57.7481 52.3227 57.7153 57.6224 57.7481C58.6693 57.7153 59.8797 58.2402 60.0761 59.3557C60.2069 60.4383 60.1742 61.5537 60.1088 62.6692C60.0434 63.883 58.7674 64.6048 57.6552 64.5392C53.3368 64.5392 49.0186 64.5392 44.7003 64.5392C44.7003 65.5234 44.7003 66.4748 44.733 67.459C43.6861 67.459 42.7047 67.459 41.6906 67.3934ZM44.6675 59.9134C44.6675 60.6679 44.7003 61.4225 44.7003 62.1771C48.7896 62.1443 52.9116 62.2099 57.0008 62.1443C57.7533 61.7178 57.2299 60.668 57.3935 59.979C53.1406 59.815 48.9205 59.9462 44.6675 59.9134Z" fill="#9FA0A0"/>
<path d="M0.176168 59.2244C0.601455 58.273 1.71374 57.7154 2.72789 57.7482C7.92945 57.7482 13.131 57.7482 18.2999 57.7482C18.2999 58.634 18.2999 59.5198 18.3326 60.4384C13.2292 60.4712 8.15846 60.4056 3.05502 60.4712C2.95688 60.5368 2.76059 60.7008 2.69518 60.7664C2.62974 62.0458 2.69518 63.3254 2.66245 64.6048C3.12045 64.7032 3.57846 64.8344 4.06917 64.8016C8.81275 64.8016 13.589 64.8016 18.3326 64.8016C18.3326 65.6546 18.3326 66.5404 18.3326 67.3934C13.36 67.5246 8.35475 67.4262 3.38217 67.459C2.17174 67.4918 0.634168 67.2622 0.176168 65.95C-0.0855466 64.8016 0.110739 63.5878 0.0453107 62.4068C0.0453107 61.357 -0.118261 60.2414 0.176168 59.2244ZM20.8189 65.0642C20.8189 62.6364 20.8189 60.1758 20.8189 57.7482C21.8985 57.7482 22.9453 57.7482 24.0249 57.7482C24.0576 60.0774 23.9922 62.4396 24.0576 64.7688C28.016 64.8344 31.9745 64.8016 35.9329 64.8016C36.0965 62.4396 35.9656 60.0774 35.9984 57.7482C37.0779 57.7482 38.1575 57.7482 39.237 57.7482C39.2697 60.1758 39.2697 62.6364 39.237 65.0642C39.237 66.3764 38.0266 67.459 36.7508 67.459C33.0541 67.5574 29.3247 67.4262 25.5952 67.4918C24.5157 67.4918 23.436 67.5574 22.3891 67.295C21.5058 66.9342 20.7535 66.0484 20.8189 65.0642ZM62.595 57.7154C67.7967 57.7154 72.9982 57.7154 78.1998 57.7154C79.3121 57.6826 80.6535 58.273 80.9151 59.4542C80.9805 60.5368 80.9805 61.6522 80.9151 62.7348C80.7516 63.6534 79.9337 64.1456 79.214 64.572C79.9337 65.4578 80.5552 66.4092 81.1768 67.3606C79.901 67.295 77.9381 68.0496 77.2184 66.606C76.793 65.9172 76.3678 65.2282 75.9753 64.5064C72.5403 64.4736 69.1052 64.5064 65.6703 64.5064C65.6703 65.4578 65.6703 66.4092 65.703 67.3606C64.6887 67.459 63.6419 67.459 62.6278 67.3934C62.6278 64.1784 62.595 60.9632 62.595 57.7154ZM65.703 59.815C65.6703 60.6024 65.6703 61.3898 65.6703 62.1772C69.7268 62.1444 73.8161 62.2428 77.8727 62.1444C77.9709 62.0786 78.1671 61.9146 78.2652 61.849C78.1998 61.193 78.5923 60.1758 77.8072 59.8478C73.7833 59.7494 69.7268 59.8478 65.703 59.815ZM83.4996 60.143C83.4669 58.6668 85.0044 57.6498 86.3457 57.7482C91.5145 57.7482 96.6507 57.7482 101.82 57.7482C101.82 60.9632 101.885 64.2112 101.787 67.4262C100.904 67.459 99.9875 67.5574 99.1042 67.4262C98.7117 66.5732 99.0388 65.4578 98.9407 64.5392C94.786 64.5392 90.6639 64.5392 86.5093 64.5392C86.5093 65.5234 86.5093 66.4748 86.5093 67.459C85.4951 67.4918 84.5137 67.459 83.4996 67.4262C83.5323 64.9986 83.4342 62.5708 83.4996 60.143ZM86.5093 59.9462C86.5093 60.7008 86.5093 61.4226 86.5093 62.1772C90.6312 62.1444 94.786 62.1772 98.908 62.1772C98.908 61.4226 98.908 60.668 98.9407 59.9134C94.786 59.9134 90.6639 59.8806 86.5093 59.9462Z" fill="#9FA0A0"/>
</g>
<defs>
<clipPath id="clip0_16_13">
<rect width="103" height="67" fill="white" transform="translate(0 0.5)"/>
</clipPath>
</defs>
</svg>
