<svg width="13" height="14" viewBox="0 0 13 14" fill="none" xmlns="http://www.w3.org/2000/svg">
<path d="M7.28125 0.90625V7.63281C8.64844 6.26562 9.38672 5.55469 9.46875 5.44531L10.3984 6.375L9.93359 6.83984L7.08984 9.68359L6.625 10.1484L6.16016 9.68359L3.31641 6.83984L2.85156 6.375L3.78125 5.44531C3.89062 5.55469 4.60156 6.26562 5.96875 7.63281V0.25H7.28125V0.90625ZM2.30469 7.6875L3.61719 9H1.8125V12.0625H11.4375V9H9.63281L10.9453 7.6875H12.75V13.375H0.5V7.6875H2.30469ZM10.5625 10.5312C10.5625 10.8867 10.2617 11.1875 9.90625 11.1875C9.55078 11.1875 9.25 10.8867 9.25 10.5312C9.25 10.1758 9.55078 9.875 9.90625 9.875C10.2617 9.875 10.5625 10.1758 10.5625 10.5312Z" fill="#132025"/>
</svg>
