<svg width="25" height="24" viewBox="0 0 25 24" fill="none" xmlns="http://www.w3.org/2000/svg">
<path d="M12.2344 1.5H4.73438C3.89062 1.5 3.23438 2.15625 3.23438 3V9H13.7344V3C13.7344 2.15625 13.0781 1.5 12.2344 1.5ZM13.7344 10.5H3.23438V22.5H13.7344V10.5ZM1.73438 3C1.73438 1.35938 3.09375 0 4.73438 0H12.2344C13.875 0 15.2344 1.35938 15.2344 3V13.5H15.9844C18.0469 13.5 19.7344 15.1875 19.7344 17.25V18C19.7344 18.8438 20.3906 19.5 21.2344 19.5C22.0781 19.5 22.7344 18.8438 22.7344 18V10.5C21.0938 10.5 19.7344 9.14062 19.7344 7.5V3.9375L18.4688 2.8125C18.1875 2.53125 18.1406 2.0625 18.4219 1.73438C18.7031 1.45312 19.1719 1.40625 19.5 1.6875L23.25 5.15625C23.9062 5.71875 24.2344 6.51562 24.2344 7.35938V18C24.2344 19.6406 22.875 21 21.2344 21C19.5938 21 18.2344 19.6406 18.2344 18V17.25C18.2344 16.0312 17.25 15 15.9844 15H15.2344V22.5C15.6562 22.5 15.9844 22.8281 15.9844 23.25C15.9844 23.6719 15.6562 24 15.2344 24H1.73438C1.3125 24 0.984375 23.6719 0.984375 23.25C0.984375 22.8281 1.3125 22.5 1.73438 22.5V3ZM22.7344 9V7.35938C22.7344 6.9375 22.5469 6.5625 22.2656 6.28125L21.2344 5.34375V7.5C21.2344 8.34375 21.8906 9 22.7344 9Z" fill="#E54F29"/>
</svg>
