<svg width="22" height="26" viewBox="0 0 22 26" fill="none" xmlns="http://www.w3.org/2000/svg">
<path d="M13.6465 10L13.0371 11.5H19.834C20.4902 11.5 21.0527 11.875 21.2402 12.4844C21.4746 13.0938 21.2871 13.75 20.8184 14.1719L7.31836 25.4219C6.75586 25.8438 6.00586 25.8906 5.44336 25.4688C4.88086 25.0469 4.69336 24.3438 4.92773 23.6875L8.02148 16L8.63086 14.5H1.83398C1.22461 14.5 0.662109 14.125 0.427734 13.5156C0.193359 12.9062 0.380859 12.25 0.896484 11.8281L14.3965 0.578125C14.9121 0.15625 15.6621 0.109375 16.2246 0.53125C16.7871 0.953125 16.9746 1.65625 16.7402 2.3125L13.6465 10ZM9.84961 13.6562C10.1309 14.0781 10.1777 14.5938 9.99023 15.0625L6.33398 24.25L19.834 13H13.0371C12.5684 13 12.0996 12.7656 11.8184 12.3438C11.5371 11.9219 11.4902 11.4062 11.6777 10.9375L15.334 1.75L1.83398 13H8.63086C9.09961 13 9.56836 13.2344 9.84961 13.6562Z" fill="#708585"/>
</svg>
