<svg width="25" height="24" viewBox="0 0 25 24" fill="none" xmlns="http://www.w3.org/2000/svg">
<path d="M12.2344 22.5C18.0469 22.5 22.7344 17.8125 22.7344 12C22.7344 6.1875 18.0469 1.5 12.2344 1.5C6.42188 1.5 1.73438 6.1875 1.73438 12C1.73438 17.8125 6.42188 22.5 12.2344 22.5ZM12.2344 0C18.8438 0 24.2344 5.39062 24.2344 12C24.2344 18.6094 18.8438 24 12.2344 24C5.625 24 0.234375 18.6094 0.234375 12C0.234375 5.39062 5.625 0 12.2344 0ZM13.3594 4.5C13.3594 5.10938 12.8438 5.625 12.2344 5.625C11.625 5.625 11.1094 5.10938 11.1094 4.5C11.1094 3.89062 11.625 3.375 12.2344 3.375C12.8438 3.375 13.3594 3.89062 13.3594 4.5ZM10.7344 16.5C10.7344 17.3438 11.3906 18 12.2344 18C13.0781 18 13.7344 17.3438 13.7344 16.5C13.7344 15.6562 13.0781 15 12.2344 15C11.3906 15 10.7344 15.6562 10.7344 16.5ZM9.23438 16.5C9.23438 14.8594 10.5938 13.5 12.2344 13.5C13.0781 13.5 13.7812 13.8281 14.3438 14.3438L19.3594 11.3438C19.6875 11.1562 20.1562 11.25 20.3906 11.625C20.5781 11.9531 20.4844 12.4219 20.1094 12.6562L15.0938 15.6562C15.1875 15.9375 15.2344 16.2188 15.2344 16.5C15.2344 18.1406 13.875 19.5 12.2344 19.5C10.5938 19.5 9.23438 18.1406 9.23438 16.5ZM18.6094 6.75C18.6094 7.35938 18.0938 7.875 17.4844 7.875C16.875 7.875 16.3594 7.35938 16.3594 6.75C16.3594 6.14062 16.875 5.625 17.4844 5.625C18.0938 5.625 18.6094 6.14062 18.6094 6.75ZM4.73438 10.875C5.34375 10.875 5.85938 11.3906 5.85938 12C5.85938 12.6094 5.34375 13.125 4.73438 13.125C4.125 13.125 3.60938 12.6094 3.60938 12C3.60938 11.3906 4.125 10.875 4.73438 10.875ZM8.10938 6.75C8.10938 7.35938 7.59375 7.875 6.98438 7.875C6.375 7.875 5.85938 7.35938 5.85938 6.75C5.85938 6.14062 6.375 5.625 6.98438 5.625C7.59375 5.625 8.10938 6.14062 8.10938 6.75Z" fill="#E54F29"/>
</svg>
