<svg width="24" height="24" viewBox="0 0 24 24" fill="none" xmlns="http://www.w3.org/2000/svg">
<path d="M12 22.5C17.8125 22.5 22.5 17.8125 22.5 12C22.5 6.1875 17.8125 1.5 12 1.5C6.1875 1.5 1.5 6.1875 1.5 12C1.5 17.8125 6.1875 22.5 12 22.5ZM12 0C18.6094 0 24 5.39062 24 12C24 18.6094 18.6094 24 12 24C5.39062 24 0 18.6094 0 12C0 5.39062 5.39062 0 12 0ZM13.125 4.5C13.125 5.10938 12.6094 5.625 12 5.625C11.3906 5.625 10.875 5.10938 10.875 4.5C10.875 3.89062 11.3906 3.375 12 3.375C12.6094 3.375 13.125 3.89062 13.125 4.5ZM10.5 16.5C10.5 17.3438 11.1562 18 12 18C12.8438 18 13.5 17.3438 13.5 16.5C13.5 15.6562 12.8438 15 12 15C11.1562 15 10.5 15.6562 10.5 16.5ZM9 16.5C9 14.8594 10.3594 13.5 12 13.5C12.8438 13.5 13.5469 13.8281 14.1094 14.3438L19.125 11.3438C19.4531 11.1562 19.9219 11.25 20.1562 11.625C20.3438 11.9531 20.25 12.4219 19.875 12.6562L14.8594 15.6562C14.9531 15.9375 15 16.2188 15 16.5C15 18.1406 13.6406 19.5 12 19.5C10.3594 19.5 9 18.1406 9 16.5ZM18.375 6.75C18.375 7.35938 17.8594 7.875 17.25 7.875C16.6406 7.875 16.125 7.35938 16.125 6.75C16.125 6.14062 16.6406 5.625 17.25 5.625C17.8594 5.625 18.375 6.14062 18.375 6.75ZM4.5 10.875C5.10938 10.875 5.625 11.3906 5.625 12C5.625 12.6094 5.10938 13.125 4.5 13.125C3.89062 13.125 3.375 12.6094 3.375 12C3.375 11.3906 3.89062 10.875 4.5 10.875ZM7.875 6.75C7.875 7.35938 7.35938 7.875 6.75 7.875C6.14062 7.875 5.625 7.35938 5.625 6.75C5.625 6.14062 6.14062 5.625 6.75 5.625C7.35938 5.625 7.875 6.14062 7.875 6.75Z" fill="#708585"/>
</svg>
