<svg width="38" height="34" viewBox="0 0 38 34" fill="none" xmlns="http://www.w3.org/2000/svg">
<path d="M34.5625 4.0625H34.625C31.8125 6.8125 30.375 8.3125 30.25 8.4375C29.8125 8.1875 28.625 7.375 26.5625 6H23.5625H19.6875L12.1875 13.5C13.9375 14.9375 16.5625 14.875 18.1875 13.1875C20.3125 11.0625 21.625 9.8125 22.0625 9.375L23.125 10.4375L32.0625 19.375C33.875 17.5625 35.0625 16.375 35.5625 15.875L37.625 18L36.5625 19.0625C34.75 20.9375 33.5625 22.125 33.0625 22.5625C31.1875 24.5 30 25.625 29.625 26L29.5625 26.125C28.6875 27 25.875 29.75 25.625 30H12.4375C12.375 29.9375 11.5625 29.1875 10 27.625C6.5 31.125 4.6875 33 4.5 33.125L2.4375 31L3.5 29.9375L9 24.4375L10.0625 23.375C10.5 23.8125 11.6875 25.0625 13.625 27H17.4375C16.8125 26.375 16.125 25.75 15.4375 25L17.5625 22.875C17.875 23.25 19.25 24.625 21.625 27H24.4375L25.4375 26C24 24.5625 23 23.5625 22.4375 23L24.5 20.875C25.0625 21.4375 26.0625 22.4375 27.5 23.875C28.0625 23.3125 28.875 22.5625 29.9375 21.5L22 13.625L20.3125 15.3125C17.4375 18.25 12.6875 18.25 9.75 15.3125L7.9375 13.5L9 12.4375L15.4375 6H10.6875L9.125 7.5625L3.625 13.0625L2.5625 14.125L0.4375 12L1.5 10.9375L7 5.4375L9.4375 3H18.4375H27.5L27.875 3.25L29.8125 4.5625C31.875 2.5625 33.0625 1.3125 33.5625 0.875L35.625 3L34.5625 4.0625Z" fill="#E54F29"/>
</svg>
