<svg width="13" height="14" viewBox="0 0 13 14" fill="none" xmlns="http://www.w3.org/2000/svg">
<path d="M6.39062 3.75684C8.14062 3.75684 9.53516 5.17871 9.53516 6.90137C9.53516 8.65137 8.11328 10.0459 6.39062 10.0459C4.64062 10.0459 3.24609 8.62402 3.24609 6.90137C3.24609 5.15137 4.66797 3.75684 6.39062 3.75684ZM6.39062 4.85059C5.24219 4.87793 4.33984 5.78027 4.33984 6.90137C4.36719 8.0498 5.26953 8.95215 6.39062 8.95215C7.53906 8.9248 8.44141 8.02246 8.44141 6.90137C8.41406 5.75293 7.51172 4.85059 6.39062 4.85059ZM8.93359 3.62012C8.93359 4.03027 9.26172 4.3584 9.67188 4.3584C10.082 4.3584 10.4102 4.03027 10.4102 3.62012C10.4102 3.20996 10.082 2.90918 9.67188 2.90918C9.26172 2.90918 8.93359 3.20996 8.93359 3.62012ZM12.4883 4.38574C12.543 5.39746 12.543 8.40527 12.4883 9.41699C12.4336 10.4014 12.2148 11.2764 11.5039 11.9873C10.7656 12.7256 9.91797 12.9443 8.93359 12.9717C7.92188 13.0537 4.88672 13.0537 3.875 12.9717C2.89062 12.9443 2.01562 12.6982 1.30469 11.9873C0.59375 11.2764 0.347656 10.4014 0.320312 9.41699C0.265625 8.40527 0.265625 5.37012 0.320312 4.3584C0.375 3.40137 0.59375 2.52637 1.30469 1.81543C2.01562 1.07715 2.89062 0.858398 3.875 0.803711C4.88672 0.749023 7.92188 0.749023 8.93359 0.803711C9.91797 0.858398 10.7656 1.07715 11.5039 1.81543C12.2148 2.52637 12.4336 3.40137 12.4883 4.38574ZM11.1758 10.5107C11.5039 9.71777 11.4219 7.80371 11.4219 6.90137C11.4219 5.99902 11.5039 4.08496 11.1758 3.29199C10.957 2.74512 10.5469 2.33496 10 2.11621C9.20703 1.81543 7.29297 1.87012 6.39062 1.87012C5.51562 1.87012 3.60156 1.81543 2.78125 2.11621C2.26172 2.33496 1.82422 2.74512 1.63281 3.29199C1.30469 4.08496 1.38672 5.99902 1.38672 6.90137C1.38672 7.80371 1.30469 9.71777 1.63281 10.5107C1.85156 11.0576 2.26172 11.4678 2.78125 11.6865C3.60156 11.9873 5.51562 11.9326 6.39062 11.9326C7.29297 11.9326 9.20703 11.9873 10 11.6865C10.5469 11.4678 10.957 11.0576 11.1758 10.5107Z" fill="#132025"/>
</svg>
