<svg width="32" height="32" viewBox="0 0 32 32" fill="none" xmlns="http://www.w3.org/2000/svg">
<path d="M19.75 18.875C20.125 18.9375 20.5625 19 21 19C25.4375 19 29 15.4375 29 11C29 6.5625 25.4375 3 21 3C16.5625 3 13 6.5625 13 11C13 11.4375 13.0625 11.875 13.125 12.25L13.3125 13.8125L12.25 14.875L3 24.125V29H7V25H11V21H15.875C16.75 20.125 17.5 19.375 18.25 18.6875L19.75 18.875ZM17 24H14V28H10V32H0V22.875L0.4375 22.4375L10.125 12.75C10.0625 12.1875 10 11.625 10 11C10 4.9375 14.9375 0 21 0C27.0625 0 32 4.9375 32 11C32 17.0625 27.0625 22 21 22C20.4375 22 19.8125 21.9375 19.25 21.875C17.9375 23.1875 17.1875 23.9375 17.125 24H17ZM23 11C21.875 11 21 10.125 21 9C21 7.875 21.875 7 23 7C24.125 7 25 7.875 25 9C25 10.125 24.125 11 23 11Z" fill="#E54F29"/>
</svg>
