<svg width="13" height="14" viewBox="0 0 13 14" fill="none" xmlns="http://www.w3.org/2000/svg">
<path d="M3 13.1514H0.457031V4.97559H3V13.1514ZM1.74219 3.85449C0.921875 3.85449 0.265625 3.19824 0.265625 2.37793C0.265625 1.99512 0.429688 1.6123 0.703125 1.33887C0.976562 1.06543 1.35938 0.901367 1.74219 0.901367C2.125 0.901367 2.50781 1.06543 2.78125 1.33887C3.05469 1.6123 3.21875 1.99512 3.21875 2.37793C3.21875 3.19824 2.5625 3.85449 1.74219 3.85449ZM12.5156 13.1514H9.97266V9.15918C9.97266 8.22949 9.97266 6.99902 8.66016 6.99902C7.34766 6.99902 7.12891 8.03809 7.12891 9.10449V13.1514H4.58594V4.97559H7.04688V6.09668H7.07422C7.40234 5.44043 8.25 4.75684 9.48047 4.75684C12.0508 4.75684 12.5156 6.45215 12.5156 8.66699V13.1514Z" fill="#132025"/>
</svg>
