<svg width="71" height="70" viewBox="0 0 71 70" fill="none" xmlns="http://www.w3.org/2000/svg">
<g clip-path="url(#clip0_16_27)">
<path fill-rule="evenodd" clip-rule="evenodd" d="M51.2916 0.5H20.943L1.18555 20.1009V49.9759L20.7853 69.5H50.9763L70.7337 49.8991V19.9445L51.2916 0.5ZM64.7288 47.2317L48.2904 63.5398H23.6288L7.19046 47.3086V22.7683L23.6288 6.53697H48.603L64.7259 22.6119L64.7288 47.2317Z" fill="#9FA0A0"/>
<path fill-rule="evenodd" clip-rule="evenodd" d="M21.1931 27.156L17.0054 18.6905L10.7598 24.4914V45.2696L16.7676 51.3066V31.0772L21.9842 42.6024L27.9117 27.2355V59.4621H34.5501V10.3787H27.5162L21.1931 27.156ZM39.1936 10.3787V59.4621H46.7806L61.1638 45.2696V34.9189H50.1V40.8791H54.2101C55.3166 40.7227 55.3968 41.9768 54.6057 42.918C53.8146 43.8593 45.832 51.6222 45.832 51.6222V18.2185L55.1589 27.8611V30.2128H61.1667V24.7246L46.9383 10.3787H39.1936Z" fill="#9FA0A0"/>
</g>
<defs>
<clipPath id="clip0_16_27">
<rect width="71" height="69" fill="white" transform="translate(0 0.5)"/>
</clipPath>
</defs>
</svg>
