<svg width="114" height="52" viewBox="0 0 114 52" fill="none" xmlns="http://www.w3.org/2000/svg">
<path d="M57 1.15015C48.4682 1.15015 40.5247 5.47947 35.9328 12.6331H0L3.57504 16.1872H34.0678C33.4886 17.5246 33.0281 18.9118 32.6952 20.3307H7.74744L11.2814 23.844H32.1206C32.0522 24.5603 32.0158 25.2811 32.0112 25.9974C32.0158 26.6638 32.0522 27.3256 32.1115 27.9875H15.4447L18.9787 31.5008H32.6496C32.9688 32.9152 33.4066 34.3024 33.9674 35.6443H23.1466L26.7216 39.203H35.8598C40.4244 46.4382 48.409 50.8355 57 50.8491C65.591 50.8355 73.5756 46.4382 78.1402 39.203H87.2738L90.8534 35.6443H80.0326C80.5934 34.3024 81.0358 32.9198 81.3504 31.5008H95.0213L98.5553 27.9875H81.8976C81.9569 27.3256 81.9888 26.6638 81.9979 25.9974C81.9934 25.2766 81.9569 24.5603 81.8885 23.844H102.728L106.262 20.3307H81.3048C80.9719 18.9118 80.5114 17.5246 79.9322 16.1872H110.42L114 12.6331H78.0672C73.4753 5.47947 65.5318 1.15015 57 1.15015ZM57 4.51841C68.9335 4.51841 78.6053 14.1336 78.6053 25.9974C78.6053 37.8611 68.9335 47.4763 57 47.4763C45.0665 47.4763 35.3947 37.8611 35.3947 25.9974C35.3947 14.1336 45.0665 4.51841 57 4.51841ZM39.8134 20.4304V31.5643H42.1481V22.8014L44.6105 31.5643H47.0318L49.5034 22.8014V31.5643H51.8381V20.4304H48.067L45.8326 28.0238L43.5754 20.4304H39.8134ZM54.2777 20.4304V31.5643H56.7902V20.4304H54.2777ZM59.2025 20.4304V31.5643H61.5372V24.3019L66.5578 31.5643H69.0794V20.4304H66.7447V27.8651L61.6466 20.4304H59.2025ZM71.6741 20.4304V31.5643H74.1866V20.4304H71.6741Z" fill="#9FA0A0"/>
</svg>
