<svg width="15" height="15" viewBox="0 0 15 15" fill="none" xmlns="http://www.w3.org/2000/svg">
<path d="M5.36133 6.2002C5.96289 7.81348 7.24805 9.09863 8.86133 9.72754L10.2559 8.30566L14.6309 10.9307L12.4434 14.8682H12.0059C5.49805 14.8682 0.193359 9.59082 0.193359 3.05566V2.61816L4.13086 0.430664L6.75586 4.80566L5.36133 6.2002ZM10.4746 9.97363C10.0098 10.4385 9.59961 10.8486 9.2168 11.2588L8.39648 10.958C6.42773 10.1924 4.89648 8.63379 4.13086 6.66504L3.83008 5.87207C4.21289 5.48926 4.65039 5.05176 5.11523 4.58691L3.66602 2.20801L1.5332 3.38379C1.69727 8.93457 6.1543 13.3916 11.6777 13.5557L12.8809 11.3955L10.4746 9.97363Z" fill="#132025"/>
</svg>
