<svg width="136" height="41" viewBox="0 0 136 41" fill="none" xmlns="http://www.w3.org/2000/svg">
<path d="M119.7 28.6541C120.03 28.6397 120.26 28.6253 120.561 28.6108C120.561 31.729 120.561 34.8038 120.561 38.0663C120.173 37.9075 119.858 37.7776 119.499 37.6332C118.982 37.7487 118.307 37.9941 117.632 38.0086C116.642 38.023 115.895 37.4456 115.751 36.4639C115.608 35.3957 115.522 34.2552 115.708 33.2014C116.01 31.5413 117.805 30.9206 119.24 31.8445C119.355 31.9166 119.47 31.9888 119.7 32.1476C119.7 31.4691 119.7 30.9061 119.7 30.3287C119.7 29.7801 119.7 29.2316 119.7 28.6541ZM119.714 34.7605C119.657 34.3563 119.642 33.8366 119.513 33.3602C119.312 32.5951 118.795 32.2487 118.034 32.2631C117.302 32.2775 116.713 32.624 116.627 33.3602C116.512 34.2552 116.498 35.1791 116.613 36.0597C116.713 36.8537 117.345 37.2579 118.092 37.2435C118.853 37.229 119.369 36.8104 119.556 36.002C119.657 35.6267 119.657 35.2369 119.714 34.7605Z" fill="#708585"/>
<path d="M95.7665 37.951C95.3645 37.951 95.1348 37.951 94.8477 37.951C94.8477 34.8473 94.8477 31.7724 94.8477 28.6543C95.1348 28.6543 95.3932 28.6543 95.7378 28.6543C95.7378 30.6609 95.7378 32.6386 95.7378 34.6163C95.7952 34.6452 95.8527 34.6596 95.9101 34.6885C96.671 33.8223 97.4607 32.9706 98.1785 32.0612C98.5949 31.527 99.0543 31.4115 99.7434 31.5848C99.0256 32.4076 98.3364 33.2016 97.6473 34.01C98.48 35.3092 99.284 36.5651 100.131 37.8788C99.4563 38.1098 98.9969 38.0087 98.6523 37.3591C98.1785 36.4785 97.6042 35.6412 97.0587 34.7607C95.8814 35.5113 95.5081 36.5796 95.7665 37.951Z" fill="#708585"/>
<path d="M86.5202 36.5215C86.7356 36.7092 86.9222 36.868 87.1232 37.0556C86.2331 38.0806 85.1276 38.2105 83.9647 37.9507C82.8161 37.7053 82.2418 36.8391 82.0982 35.742C82.0121 35.0202 82.0264 34.2407 82.17 33.5333C82.4572 32.0897 83.4191 31.3968 84.8404 31.469C86.1182 31.5267 86.9796 32.3351 87.2094 33.7354C87.2668 34.1107 87.2955 34.4861 87.3386 34.9624C85.8454 34.9624 84.4241 34.9624 82.9884 34.9624C82.9597 35.8863 83.1463 36.6226 83.9216 37.0123C84.8117 37.4887 85.7019 37.2722 86.5202 36.5215ZM86.2474 34.2407C86.3766 33.1291 85.7162 32.2774 84.7112 32.2196C83.6632 32.1619 82.9453 32.9847 82.9884 34.2407C84.0795 34.2407 85.1563 34.2407 86.2474 34.2407Z" fill="#708585"/>
<path d="M106.521 34.9913C104.956 34.9913 103.578 34.9913 102.142 34.9913C102.142 35.8431 102.285 36.5648 103.018 36.9691C103.994 37.532 104.898 37.2433 105.731 36.536C105.932 36.7092 106.104 36.868 106.305 37.0557C105.473 38.0229 104.425 38.1817 103.29 37.9796C102.257 37.8063 101.553 37.1567 101.395 36.1606C101.252 35.2079 101.252 34.1974 101.424 33.259C101.654 32.0897 102.616 31.469 103.793 31.469C105.042 31.4546 105.903 32.0609 106.248 33.259C106.42 33.7643 106.435 34.3129 106.521 34.9913ZM102.185 34.2407C103.29 34.2407 104.382 34.2407 105.487 34.2407C105.545 33.0425 104.87 32.2341 103.85 32.2197C102.831 32.2052 102.171 32.9992 102.185 34.2407Z" fill="#708585"/>
<path d="M109.392 37.9217C109.105 37.9217 108.846 37.9217 108.545 37.9217C108.545 35.7852 108.545 33.6776 108.545 31.5411C109.004 31.4689 109.464 31.3246 109.478 31.9309C110.052 31.7721 110.612 31.5122 111.172 31.4689C112.536 31.3823 113.441 32.1619 113.512 33.5333C113.584 34.9624 113.527 36.406 113.527 37.9073C113.211 37.9073 112.938 37.9073 112.579 37.9073C112.579 36.5648 112.594 35.2222 112.579 33.8797C112.565 32.7104 111.775 32.0897 110.627 32.3062C109.851 32.4506 109.421 33.0136 109.406 33.9375C109.392 35.0201 109.406 36.1028 109.406 37.1855C109.421 37.4309 109.406 37.6619 109.392 37.9217Z" fill="#708585"/>
<path d="M90.168 37.9364C89.8521 37.9364 89.6224 37.9364 89.3496 37.9364C89.3496 35.7998 89.3496 33.7067 89.3496 31.5413C89.608 31.5268 89.8665 31.5124 90.1393 31.498C90.1823 31.7145 90.211 31.8877 90.2541 32.1331C91.3022 31.3536 92.3646 31.1515 93.5706 32.0032C93.3552 32.2486 93.1686 32.4507 92.982 32.6528C92.8815 32.6384 92.8097 32.6528 92.7522 32.6095C91.4601 31.8589 90.2541 32.494 90.211 33.9954C90.168 35.0781 90.1967 36.1607 90.1967 37.2434C90.1967 37.4455 90.1823 37.6621 90.168 37.9364Z" fill="#708585"/>
<path d="M86.2905 14.8101V20.8442L88.2718 21.6671V22.2445H82.127V21.6671L84.1082 20.8442V8.05408L82.127 7.23124V6.65381H88.4297C90.2961 6.65381 90.9853 6.84147 91.8467 7.51996C92.7082 8.19844 93.1676 9.20895 93.1676 10.3927C93.1676 12.5003 91.7749 14.0161 89.4778 14.3914L94.1582 20.8154L95.9529 21.6526V22.2301H92.2344L87.1376 14.7956H86.2905V14.8101ZM86.2905 13.8717H87.8411C89.5639 13.8717 90.7269 12.5436 90.7269 10.5948C90.7269 8.67482 89.7075 7.5777 87.9129 7.5777H86.2905V13.8717ZM96.1251 22.2445V21.6671L98.1064 20.8442V8.05408L96.1251 7.23124V6.65381H103.074C106.075 6.65381 107.625 7.21681 109.032 8.77588C110.267 10.1762 110.841 11.9084 110.841 14.1027C110.841 16.9321 109.822 19.2996 107.955 20.7432C106.606 21.797 105.027 22.2445 102.729 22.2445H96.1251ZM100.289 21.1907H102.514C104.51 21.1907 105.586 20.7865 106.721 19.6027C107.97 18.2746 108.53 16.629 108.53 14.3481C108.53 12.3848 108.113 10.8835 107.223 9.69977C106.175 8.27062 104.897 7.70762 102.787 7.70762H100.274V21.2051H100.289V21.1907ZM122.313 10.2916L118.034 22.4755H117.087L112.392 8.05408L110.597 7.23124V6.65381H116.484V7.23124L114.718 8.05408L117.417 16.8455C117.532 17.1775 117.603 17.4807 117.69 17.755C117.804 18.2458 117.876 18.5056 117.876 18.5778C117.919 18.6644 117.962 18.8376 118.034 19.0253L122.313 6.65381H123.361L126.663 16.9177C127.036 18.0004 127.122 18.3901 127.266 19.1697L130.941 8.06852L129.147 7.24568V6.66824H134.329V7.24568L132.52 8.06852L127.266 22.4755H126.318L122.313 10.2916Z" fill="white"/>
<path d="M67.2674 7.41909L55.4371 1.42822C54.5757 1.54371 53.585 1.7025 52.7954 1.83243L60.8354 5.41251C60.6057 5.51356 60.5195 5.54243 60.3185 5.62905L51.7617 2.02009C50.125 2.32324 48.4739 2.71301 47.0956 3.08834L54.791 5.64348C54.4321 5.81671 54.3316 5.86002 53.9727 6.03325L45.6599 3.47811C43.1905 4.18547 40.6636 5.03718 37.3041 6.45189L52.9533 9.26688C52.5082 9.49785 52.2498 9.65664 51.8047 9.90205L35.1361 7.39022C31.1736 9.12252 26.5649 11.7931 22.9039 14.2617H39.2853C38.5388 14.7525 37.9071 15.1567 37.0026 15.8063L37.0169 15.7919L19.8745 16.3837C16.7303 18.6646 13.5143 21.4074 11.6479 23.0964C9.83888 24.7421 4.49804 30.2999 2.04297 35.3091L22.0424 29.9679C21.1379 31.3248 20.4201 32.754 19.975 34.0099L41.6973 26.9363C41.4676 21.725 46.3921 17.0767 49.7373 14.2617H52.4939C48.2155 17.9861 46.2485 22.1581 46.7941 25.2906L53.585 23.082C51.9196 18.7656 56.399 11.1002 67.2674 7.41909ZM62.7449 6.65399L64.0801 7.21699C61.8547 8.12645 59.8591 9.12252 58.0932 10.1763L56.2698 9.87318C57.8922 8.89155 60.2898 7.69337 62.7449 6.65399Z" fill="white"/>
</svg>
