<svg width="21" height="21" viewBox="0 0 21 21" fill="none" xmlns="http://www.w3.org/2000/svg">
<path d="M9.9017 1.10949C10.1139 0.456269 11.0381 0.456268 11.2503 1.10949L13.1715 7.02219C13.2664 7.31431 13.5386 7.5121 13.8458 7.5121H20.0628C20.7496 7.5121 21.0352 8.391 20.4795 8.79471L15.4499 12.449C15.2014 12.6295 15.0974 12.9495 15.1923 13.2417L17.1134 19.1544C17.3257 19.8076 16.5781 20.3508 16.0224 19.9471L10.9927 16.2928C10.7442 16.1123 10.4078 16.1123 10.1593 16.2928L5.12961 19.9471C4.57395 20.3508 3.82632 19.8076 4.03856 19.1544L5.95971 13.2417C6.05463 12.9495 5.95065 12.6295 5.70215 12.449L0.672508 8.79471C0.116847 8.391 0.402418 7.5121 1.08925 7.5121H7.30623C7.6134 7.5121 7.88562 7.31431 7.98054 7.02219L9.9017 1.10949Z" fill="#E8502C"/>
</svg>
