<svg width="13" height="14" viewBox="0 0 13 14" fill="none" xmlns="http://www.w3.org/2000/svg">
<path d="M0.751953 0.874023H1.4082C7.80664 0.874023 13.002 6.06934 13.002 12.4678V13.124H11.6895V12.4678C11.6895 6.78027 7.0957 2.18652 1.4082 2.18652H0.751953V0.874023ZM2.50195 11.8115C2.74805 11.8115 2.93945 11.6201 2.93945 11.374C2.93945 11.1279 2.74805 10.9365 2.50195 10.9365C2.25586 10.9365 2.06445 11.1279 2.06445 11.374C2.06445 11.6201 2.25586 11.8115 2.50195 11.8115ZM2.50195 9.62402C3.45898 9.62402 4.25195 10.417 4.25195 11.374C4.25195 12.3311 3.45898 13.124 2.50195 13.124C1.54492 13.124 0.751953 12.3311 0.751953 11.374C0.751953 10.417 1.54492 9.62402 2.50195 9.62402ZM1.4082 4.81152C5.64648 4.81152 9.06445 8.22949 9.06445 12.4678V13.124H7.75195V12.4678C7.75195 8.96777 4.9082 6.12402 1.4082 6.12402H0.751953V4.81152H1.4082Z" fill="#132025"/>
</svg>
