<svg width="37" height="36" viewBox="0 0 37 36" fill="none" xmlns="http://www.w3.org/2000/svg">
<path d="M12 7.625L6.375 3.875L5.875 4.375L9.625 10H12V7.625ZM15 6V10.875L21.125 17H27C33.25 23.1875 36.5625 26.5625 37 27L29 35C28.5625 34.5625 25.25 31.1875 19 25V19.125L12.875 13H8L2 4L6 0L15 6ZM22 23.75L29 30.75L32.75 27L25.75 20H22V23.75ZM12.3125 16.625L14.4375 18.75L6.625 26.5625L5.1875 28L8 30.8125C8.125 30.75 10.75 28.0625 16 22.8125V27.0625C8.4375 34.6875 8.75 34.375 8 35.0625C7.9375 35 5.9375 33 2 29.0625L0.9375 28C1.1875 27.75 7.0625 21.875 12.3125 16.625ZM22 13.625V7.875L22.4375 7.4375L25.8125 4.125C25.375 4.0625 24.9375 4 24.5 4C21.75 4 19.3125 5.5 18 7.75V3.25C19.8125 1.875 22.0625 1 24.5 1H24.5625C26.25 1 27.8125 1.4375 29.25 2.125L29.3125 2.1875C29.875 2.4375 30.4375 2.8125 30.9375 3.1875C30.625 3.5625 28.625 5.5 25 9.125V11H26.875C30.5 7.375 32.5 5.4375 32.8125 5.0625C33.1875 5.625 33.5625 6.125 33.875 6.75V6.8125C34.5625 8.0625 34.9375 9.5 35 11.0625C35 11.1875 35 11.375 35 11.5C35 14.125 34.0625 16.4375 32.5625 18.3125L30.4375 16.1875C31.4375 14.875 32 13.25 32 11.5C32 11.0625 32 10.6875 31.9375 10.25L28.5625 13.5625L28.125 14H22.375L22 13.625Z" fill="#E54F29"/>
</svg>
