<svg width="17" height="18" viewBox="0 0 17 18" fill="none" xmlns="http://www.w3.org/2000/svg">
<path d="M12.877 2.87402L13.752 0.905273L14.627 2.87402L16.5957 3.74902L14.627 4.62402L13.752 6.59277L12.877 4.62402L10.9082 3.74902L12.877 2.87402ZM7.62695 10.749C6.88867 12.417 6.31445 13.7295 5.87695 14.6865C5.43945 13.7295 4.86523 12.417 4.12695 10.749C2.45898 10.0107 1.14648 9.43652 0.189453 8.99902C1.14648 8.56152 2.45898 7.9873 4.12695 7.24902C4.86523 5.58105 5.43945 4.26855 5.87695 3.31152C6.31445 4.26855 6.88867 5.58105 7.62695 7.24902C9.29492 7.9873 10.6074 8.56152 11.5645 8.99902C10.6074 9.43652 9.29492 10.0107 7.62695 10.749ZM5.87695 11.46C6.31445 10.5029 6.56055 9.92871 6.64258 9.76465C6.80664 9.68262 7.38086 9.43652 8.33789 8.99902C7.38086 8.58887 6.80664 8.31543 6.64258 8.2334C6.56055 8.06934 6.31445 7.49512 5.87695 6.53809C5.4668 7.49512 5.19336 8.06934 5.11133 8.2334C4.94727 8.31543 4.37305 8.58887 3.41602 8.99902C4.37305 9.43652 4.94727 9.68262 5.11133 9.76465C5.19336 9.92871 5.4668 10.5029 5.87695 11.46ZM12.877 11.4053L13.752 13.374L15.7207 14.249L13.752 15.124L12.877 17.0928L12.002 15.124L10.0332 14.249L12.002 13.374L12.877 11.4053Z" fill="#132025"/>
</svg>
