<svg width="17" height="16" viewBox="0 0 17 16" fill="none" xmlns="http://www.w3.org/2000/svg">
<path d="M8.60938 0.526367C8.77344 0.854492 9.62109 2.49512 11.1523 5.50293C14.4609 6.02246 16.293 6.32324 16.6484 6.37793C16.4023 6.62402 15.0898 7.93652 12.7109 10.3154C13.2305 13.624 13.5312 15.4561 13.5859 15.8115C13.2578 15.6475 11.6172 14.7998 8.60938 13.2959C5.62891 14.7998 3.96094 15.6475 3.66016 15.8115C3.71484 15.4561 3.98828 13.624 4.50781 10.3154C2.15625 7.93652 0.84375 6.62402 0.570312 6.37793C0.925781 6.32324 2.78516 6.02246 6.09375 5.50293C7.59766 2.49512 8.44531 0.854492 8.60938 0.526367ZM8.60938 3.4248L7.10547 6.37793L6.94141 6.67871L6.61328 6.7334L3.33203 7.25293L5.68359 9.60449L5.92969 9.85059L5.875 10.1787L5.35547 13.46L8.30859 11.9561L8.60938 11.8193L8.91016 11.9561L11.8906 13.46L11.3711 10.1787L11.3164 9.85059L11.5352 9.60449L13.8867 7.25293L10.6055 6.7334L10.2773 6.67871L10.1133 6.37793L8.60938 3.4248Z" fill="#132025"/>
</svg>
