<svg width="19" height="19" viewBox="0 0 19 19" fill="none" xmlns="http://www.w3.org/2000/svg">
<path d="M9.28516 16.9528C9.56641 16.9528 9.84766 16.9528 10.1289 16.9176V15.8278C10.1289 13.0504 12.4141 10.7653 15.1914 10.7653H16.5273C16.5625 10.4137 16.5977 10.027 16.5977 9.64026C16.5977 9.07776 16.5273 8.4801 16.4219 7.95276H2.18359C2.04297 8.4801 1.97266 9.07776 1.97266 9.64026C1.97266 10.027 2.00781 10.4137 2.04297 10.7653H3.37891C6.19141 10.7653 8.44141 13.0504 8.44141 15.8278V16.9176C8.72266 16.9528 9.00391 16.9528 9.28516 16.9528ZM16.0352 12.4528H15.1914C13.3281 12.4528 11.8164 13.9645 11.8164 15.8278V16.4957C13.7148 15.7926 15.2617 14.316 16.0352 12.4528ZM2.78125 6.26526H15.7891C14.5586 3.90979 12.0977 2.32776 9.28516 2.32776C6.47266 2.32776 4.01172 3.90979 2.78125 6.26526ZM6.75391 16.4957V15.8278C6.75391 13.9645 5.24219 12.4528 3.37891 12.4528H2.53516C3.30859 14.316 4.85547 15.7926 6.75391 16.4957ZM9.28516 18.6403C4.32812 18.6403 0.285156 14.5973 0.285156 9.64026C0.285156 4.68323 4.32812 0.640259 9.28516 0.640259C14.2422 0.640259 18.2852 4.68323 18.2852 9.64026C18.2852 14.5973 14.2422 18.6403 9.28516 18.6403ZM9.28516 12.1715C8.51172 12.1715 7.87891 11.5387 7.87891 10.7653C7.87891 9.99182 8.51172 9.35901 9.28516 9.35901C10.0586 9.35901 10.6914 9.99182 10.6914 10.7653C10.6914 11.5387 10.0586 12.1715 9.28516 12.1715Z" fill="white"/>
</svg>
