<svg width="20" height="19" viewBox="0 0 20 19" fill="none" xmlns="http://www.w3.org/2000/svg">
<path d="M2.66016 2.73401V8.21838C2.66016 8.46448 2.76562 8.67542 2.90625 8.81604L10.2188 16.1285C10.5703 16.4801 11.0977 16.4801 11.4141 16.1285L16.8984 10.6442C17.25 10.3278 17.25 9.76526 16.8984 9.44885L9.58594 2.13635C9.44531 1.99573 9.23438 1.89026 8.98828 1.89026H3.50391C3.04688 1.89026 2.66016 2.27698 2.66016 2.73401ZM3.50391 0.202759H8.98828C9.65625 0.202759 10.3242 0.484009 10.7812 0.94104L18.0938 8.25354C19.0781 9.23792 19.0781 10.8551 18.0938 11.8395L12.6094 17.3239C11.625 18.3082 10.0078 18.3082 9.02344 17.3239L1.71094 10.0114C1.25391 9.55432 0.972656 8.88635 0.972656 8.21838V2.73401C0.972656 1.32776 2.09766 0.202759 3.50391 0.202759ZM5.47266 5.82776C4.83984 5.82776 4.34766 5.33557 4.34766 4.70276C4.34766 4.06995 4.83984 3.57776 5.47266 3.57776C6.10547 3.57776 6.59766 4.06995 6.59766 4.70276C6.59766 5.33557 6.10547 5.82776 5.47266 5.82776Z" fill="white"/>
</svg>
