<svg width="25" height="24" viewBox="0 0 25 24" fill="none" xmlns="http://www.w3.org/2000/svg">
<path d="M21.2344 0C22.875 0 24.2344 1.35938 24.2344 3C24.2344 4.40625 23.2969 5.57812 21.9844 5.90625V10.5C21.9844 11.7656 21 12.75 19.7344 12.75H12.9844V18.0938C14.2969 18.4219 15.2344 19.5938 15.2344 21C15.2344 22.6406 13.875 24 12.2344 24C10.5938 24 9.23438 22.6406 9.23438 21C9.23438 19.5938 10.1719 18.4219 11.4844 18.0938V12.75H3.98438V18.0938C5.29688 18.4219 6.23438 19.5938 6.23438 21C6.23438 22.6406 4.875 24 3.23438 24C1.59375 24 0.234375 22.6406 0.234375 21C0.234375 19.5938 1.17188 18.4219 2.48438 18.0938V5.90625C1.17188 5.57812 0.234375 4.40625 0.234375 3C0.234375 1.35938 1.59375 0 3.23438 0C4.875 0 6.23438 1.35938 6.23438 3C6.23438 4.40625 5.29688 5.57812 3.98438 5.90625V11.25H11.4844V5.90625C10.1719 5.57812 9.23438 4.40625 9.23438 3C9.23438 1.35938 10.5938 0 12.2344 0C13.875 0 15.2344 1.35938 15.2344 3C15.2344 4.40625 14.2969 5.57812 12.9844 5.90625V11.25H19.7344C20.1562 11.25 20.4844 10.9219 20.4844 10.5V5.90625C19.1719 5.57812 18.2344 4.40625 18.2344 3C18.2344 1.35938 19.5938 0 21.2344 0ZM3.23438 19.5C2.39062 19.5 1.73438 20.1562 1.73438 21C1.73438 21.8438 2.39062 22.5 3.23438 22.5C4.07812 22.5 4.73438 21.8438 4.73438 21C4.73438 20.1562 4.07812 19.5 3.23438 19.5ZM12.2344 19.5C11.3906 19.5 10.7344 20.1562 10.7344 21C10.7344 21.8438 11.3906 22.5 12.2344 22.5C13.0781 22.5 13.7344 21.8438 13.7344 21C13.7344 20.1562 13.0781 19.5 12.2344 19.5ZM21.2344 1.5C20.3906 1.5 19.7344 2.15625 19.7344 3C19.7344 3.84375 20.3906 4.5 21.2344 4.5C22.0781 4.5 22.7344 3.84375 22.7344 3C22.7344 2.15625 22.0781 1.5 21.2344 1.5ZM3.23438 1.5C2.39062 1.5 1.73438 2.15625 1.73438 3C1.73438 3.84375 2.39062 4.5 3.23438 4.5C4.07812 4.5 4.73438 3.84375 4.73438 3C4.73438 2.15625 4.07812 1.5 3.23438 1.5ZM12.2344 1.5C11.3906 1.5 10.7344 2.15625 10.7344 3C10.7344 3.84375 11.3906 4.5 12.2344 4.5C13.0781 4.5 13.7344 3.84375 13.7344 3C13.7344 2.15625 13.0781 1.5 12.2344 1.5Z" fill="#E54F29"/>
</svg>
