<svg width="25" height="24" viewBox="0 0 25 24" fill="none" xmlns="http://www.w3.org/2000/svg">
<path d="M21.5 0C23.1406 0 24.5 1.35938 24.5 3C24.5 4.40625 23.5625 5.57812 22.25 5.90625V10.5C22.25 11.7656 21.2656 12.75 20 12.75H13.25V18.0938C14.5625 18.4219 15.5 19.5938 15.5 21C15.5 22.6406 14.1406 24 12.5 24C10.8594 24 9.5 22.6406 9.5 21C9.5 19.5938 10.4375 18.4219 11.75 18.0938V12.75H4.25V18.0938C5.5625 18.4219 6.5 19.5938 6.5 21C6.5 22.6406 5.14062 24 3.5 24C1.85938 24 0.5 22.6406 0.5 21C0.5 19.5938 1.4375 18.4219 2.75 18.0938V5.90625C1.4375 5.57812 0.5 4.40625 0.5 3C0.5 1.35938 1.85938 0 3.5 0C5.14062 0 6.5 1.35938 6.5 3C6.5 4.40625 5.5625 5.57812 4.25 5.90625V11.25H11.75V5.90625C10.4375 5.57812 9.5 4.40625 9.5 3C9.5 1.35938 10.8594 0 12.5 0C14.1406 0 15.5 1.35938 15.5 3C15.5 4.40625 14.5625 5.57812 13.25 5.90625V11.25H20C20.4219 11.25 20.75 10.9219 20.75 10.5V5.90625C19.4375 5.57812 18.5 4.40625 18.5 3C18.5 1.35938 19.8594 0 21.5 0ZM3.5 19.5C2.65625 19.5 2 20.1562 2 21C2 21.8438 2.65625 22.5 3.5 22.5C4.34375 22.5 5 21.8438 5 21C5 20.1562 4.34375 19.5 3.5 19.5ZM12.5 19.5C11.6562 19.5 11 20.1562 11 21C11 21.8438 11.6562 22.5 12.5 22.5C13.3438 22.5 14 21.8438 14 21C14 20.1562 13.3438 19.5 12.5 19.5ZM21.5 1.5C20.6562 1.5 20 2.15625 20 3C20 3.84375 20.6562 4.5 21.5 4.5C22.3438 4.5 23 3.84375 23 3C23 2.15625 22.3438 1.5 21.5 1.5ZM3.5 1.5C2.65625 1.5 2 2.15625 2 3C2 3.84375 2.65625 4.5 3.5 4.5C4.34375 4.5 5 3.84375 5 3C5 2.15625 4.34375 1.5 3.5 1.5ZM12.5 1.5C11.6562 1.5 11 2.15625 11 3C11 3.84375 11.6562 4.5 12.5 4.5C13.3438 4.5 14 3.84375 14 3C14 2.15625 13.3438 1.5 12.5 1.5Z" fill="#708585"/>
</svg>
