<svg width="13" height="14" viewBox="0 0 13 14" fill="none" xmlns="http://www.w3.org/2000/svg">
<path d="M10.4648 2.54688C11.6133 3.69531 12.2969 5.22656 12.2969 6.83984C12.2969 10.2031 9.50781 12.9102 6.17188 12.9102C5.16016 12.9102 4.14844 12.6641 3.27344 12.1719L0.046875 13.0195L0.921875 9.875C0.375 8.94531 0.101562 7.90625 0.101562 6.83984C0.101562 3.50391 2.83594 0.769531 6.17188 0.769531C7.78516 0.769531 9.31641 1.39844 10.4648 2.54688ZM6.17188 11.8984C8.96094 11.8984 11.2852 9.62891 11.2852 6.83984C11.2852 5.5 10.6836 4.24219 9.72656 3.28516C8.79688 2.32812 7.51172 1.80859 6.17188 1.80859C3.38281 1.80859 1.11328 4.05078 1.11328 6.83984C1.11328 7.79688 1.38672 8.72656 1.90625 9.51953L2.01562 9.71094L1.49609 11.5703L3.41016 11.0781L3.60156 11.1875C4.36719 11.6523 5.26953 11.8984 6.17188 11.8984ZM8.93359 8.125C9.09766 8.17969 9.17969 8.23438 9.23438 8.28906C9.26172 8.34375 9.26172 8.67188 9.125 9.02734C9.01562 9.38281 8.41406 9.68359 8.11328 9.73828C7.62109 9.82031 7.26562 9.76562 6.28125 9.35547C4.77734 8.69922 3.76562 7.16797 3.71094 7.05859C3.62891 6.97656 3.08203 6.23828 3.08203 5.5C3.08203 4.76172 3.46484 4.37891 3.60156 4.24219C3.76562 4.07812 3.92969 4.05078 4.01172 4.05078C4.12109 4.05078 4.23047 4.05078 4.3125 4.05078C4.39453 4.05078 4.53125 4.02344 4.64062 4.29688C4.77734 4.59766 5.07812 5.36328 5.10547 5.44531C5.16016 5.5 5.1875 5.60938 5.13281 5.69141C4.83203 6.26562 4.53125 6.26562 4.69531 6.53906C5.26953 7.52344 5.87109 7.87891 6.74609 8.34375C6.91016 8.39844 6.99219 8.39844 7.07422 8.28906C7.15625 8.17969 7.45703 7.85156 7.56641 7.6875C7.64844 7.55078 7.75781 7.57812 7.89453 7.63281C8.03125 7.66016 8.79688 8.04297 8.93359 8.125Z" fill="white"/>
</svg>
