<svg width="16" height="12" viewBox="0 0 16 12" fill="none" xmlns="http://www.w3.org/2000/svg">
<path d="M14.8047 2.29199C15.1055 3.46777 15.1055 5.90137 15.1055 5.90137C15.1055 5.90137 15.1055 8.3623 14.8047 9.53809C14.6406 10.167 14.1211 10.6592 13.4922 10.8506C12.3164 11.1514 7.64062 11.1514 7.64062 11.1514C7.64062 11.1514 2.96484 11.1514 1.81641 10.8506C1.16016 10.6592 0.667969 10.167 0.476562 9.53809C0.175781 8.3623 0.175781 5.90137 0.175781 5.90137C0.175781 5.90137 0.175781 3.46777 0.476562 2.29199C0.667969 1.63574 1.16016 1.14355 1.81641 0.979492C2.96484 0.651367 7.64062 0.651367 7.64062 0.651367C7.64062 0.651367 12.3164 0.651367 13.4648 0.979492C14.1211 1.14355 14.6406 1.63574 14.8047 2.29199ZM6.10938 8.14355L10.0195 5.90137L6.10938 3.68652V8.14355Z" fill="#132025"/>
</svg>
